<svg xmlns="http://www.w3.org/2000/svg" width="144" height="144" viewBox="0 0 144 144">
  <g id="Grupo_1179008" data-name="Grupo 1179008" transform="translate(-4271.617 10292.189)">
    <circle id="Elipse_13707" data-name="Elipse 13707" cx="72" cy="72" r="72" transform="translate(4271.617 -10292.189)" fill="#3f5858"/>
    <g id="Grupo_1178848" data-name="Grupo 1178848">
      <circle id="Elipse_13708" data-name="Elipse 13708" cx="65" cy="65" r="65" transform="translate(4279 -10285)" fill="#fff"/>
      <g id="Grupo_1178847" data-name="Grupo 1178847" transform="translate(4303 -10312.612)">
        <g id="Grupo_1178846" data-name="Grupo 1178846" transform="translate(1.194 62.807)">
          <path id="Trazado_998875" data-name="Trazado 998875" d="M128.262,79.506H68.488V71.687a2.576,2.576,0,0,1,2.576-2.576h54.622a2.576,2.576,0,0,1,2.576,2.576Z" transform="translate(-58.766 -69.111)" fill="#f37c7c"/>
          <path id="Trazado_998876" data-name="Trazado 998876" d="M403.57,69.111h-4.508a2.576,2.576,0,0,1,2.576,2.576v7.819h4.508V71.687A2.576,2.576,0,0,0,403.57,69.111Z" transform="translate(-336.65 -69.111)" fill="#ee6161"/>
          <path id="Trazado_998877" data-name="Trazado 998877" d="M48.348,168.974l3.423,13.319a1.624,1.624,0,0,0,1.814,1.2l31.741-4.755a1.624,1.624,0,0,0,1.343-1.968l-9.681-42.439H17.213L7.532,176.772a1.624,1.624,0,0,0,1.343,1.968l31.741,4.755a1.624,1.624,0,0,0,1.814-1.2l3.423-13.319a1.288,1.288,0,0,1,2.5,0Z" transform="translate(-7.491 -123.937)" fill="#62dbfb"/>
          <path id="Trazado_998878" data-name="Trazado 998878" d="M429.42,176.771l-9.681-42.439h-4.507l9.832,43.1a1.65,1.65,0,0,1-1.018,1.907l4.031-.6A1.624,1.624,0,0,0,429.42,176.771Z" transform="translate(-350.243 -123.937)" fill="#01d0fb"/>
        </g>
        <circle id="Elipse_13720" data-name="Elipse 13720" cx="2.576" cy="2.576" r="2.576" transform="translate(47.888 82)" fill="#dff6fd"/>
        <circle id="Elipse_13721" data-name="Elipse 13721" cx="2.576" cy="2.576" r="2.576" transform="translate(28.566 82)" fill="#dff6fd"/>
        <path id="Trazado_998879" data-name="Trazado 998879" d="M81.536,115.377l-9.65-42.309V65.384a3.776,3.776,0,0,0-3.772-3.772H52.087a1.2,1.2,0,1,0,0,2.391h2.595v8H49.239L48.694,69.2h.576a1.2,1.2,0,1,0,0-2.391H45.613a1.2,1.2,0,1,0,0,2.391h.645l.545,2.807h-12l.545-2.807h.645a1.2,1.2,0,1,0,0-2.391H32.336a1.2,1.2,0,1,0,0,2.391h.576l-.545,2.807H26.925V64H46.452a1.2,1.2,0,1,0,0-2.391H13.492A3.776,3.776,0,0,0,9.72,65.384v7.684L6.28,88.151a1.2,1.2,0,1,0,2.331.532L11.869,74.4H31.9l-1.252,6.439a3.77,3.77,0,0,0-1.365,7.02l-.344,1.773a1.2,1.2,0,1,0,2.347.456l.344-1.771A3.77,3.77,0,0,0,33,81.294l1.34-6.9H47.268l1.34,6.9a3.77,3.77,0,0,0,1.365,7.021l.344,1.771a1.2,1.2,0,1,0,2.347-.456l-.344-1.773a3.77,3.77,0,0,0-1.365-7.02L49.7,74.4H69.737l7.3,32-32.857,4.922-.969-3.77a2.484,2.484,0,0,0-4.811,0l-.969,3.77L4.571,106.395l2.787-12.22a1.2,1.2,0,0,0-2.331-.532L.07,115.375A2.819,2.819,0,0,0,2.4,118.792l31.742,4.755a2.868,2.868,0,0,0,.422.031,2.81,2.81,0,0,0,2.725-2.119l3.423-13.318c.011-.044.018-.07.09-.07s.079.026.09.071l3.423,13.316a2.813,2.813,0,0,0,3.148,2.089l16.147-2.418a1.2,1.2,0,1,0-.354-2.365l-16.145,2.418a.428.428,0,0,1-.479-.318l-.58-2.258L78.7,113.714l.5,2.195a.428.428,0,0,1-.355.518l-10.02,1.5a1.2,1.2,0,0,0,.175,2.378,1.214,1.214,0,0,0,.179-.013l10.02-1.5a2.82,2.82,0,0,0,2.332-3.416Zm-57-43.37H22.094V64h2.439Zm-4.83,0h-2.44V64H19.7Zm-7.592-6.623A1.382,1.382,0,0,1,13.492,64h1.381v8H12.111ZM31.142,85.956a1.381,1.381,0,1,1,1.381-1.381A1.382,1.382,0,0,1,31.142,85.956Zm20.7-1.381a1.381,1.381,0,1,1-1.381-1.381A1.382,1.382,0,0,1,51.845,84.576ZM36.83,113.645l-.677,2.633-32.718-4.9.6-2.644ZM34.5,121.182,2.755,116.428a.428.428,0,0,1-.354-.519l.5-2.194,32.653,4.891-.581,2.26A.427.427,0,0,1,34.5,121.182ZM64.342,64v8H61.9V64Zm-7.27,0h2.439v8H57.072Zm12.423,8H66.733V64h1.381a1.382,1.382,0,0,1,1.381,1.381ZM45.453,116.278l-.677-2.633,32.792-4.912.6,2.644Z" transform="translate(0)"/>
      </g>
    </g>
  </g>
</svg>
