<svg xmlns="http://www.w3.org/2000/svg" width="84" height="89" viewBox="0 0 84 89">
  <g id="Grupo_1178997" data-name="Grupo 1178997" transform="translate(-185.711 -3956)">
    <g id="Grupo_1178639" data-name="Grupo 1178639">
      <rect id="Rectángulo_455837" data-name="Rectángulo 455837" width="84" height="89" rx="5" transform="translate(185.711 3956)" fill="#a4cb98"/>
      <g id="Grupo_1178683" data-name="Grupo 1178683" transform="translate(176.707 3966)">
        <g id="Grupo_1178682" data-name="Grupo 1178682" transform="translate(20.423 1.345)">
          <g id="Grupo_1178674" data-name="Grupo 1178674" transform="translate(0 48.999)">
            <path id="Trazado_998608" data-name="Trazado 998608" d="M29.075,373.554h20.9v17.308h-20.9Z" transform="translate(-29.075 -373.554)" fill="#fff"/>
          </g>
          <g id="Grupo_1178675" data-name="Grupo 1178675" transform="translate(6.926 59.751)">
            <path id="Trazado_998609" data-name="Trazado 998609" d="M80.468,453.334h7.118v6.556H80.468Z" transform="translate(-80.468 -453.334)" fill="#80b4ff"/>
          </g>
          <g id="Grupo_1178676" data-name="Grupo 1178676" transform="translate(5.96 33.118)">
            <path id="Trazado_998610" data-name="Trazado 998610" d="M80.872,255.72H74.7L73.3,271.6h8.98Z" transform="translate(-73.295 -255.72)" fill="#ff7e96"/>
          </g>
          <g id="Grupo_1178677" data-name="Grupo 1178677" transform="translate(20.9 48.999)">
            <path id="Trazado_998611" data-name="Trazado 998611" d="M184.15,373.554h32.177v17.308H184.15Z" transform="translate(-184.15 -373.554)" fill="#fff"/>
          </g>
          <g id="Grupo_1178678" data-name="Grupo 1178678" transform="translate(20.9 38.962)">
            <path id="Trazado_998612" data-name="Trazado 998612" d="M205.6,304.73v-5.647l-10.78,5.647v-5.647L184.15,304.73v4.39h32.177V299.083Z" transform="translate(-184.15 -299.083)" fill="#ff7e96"/>
          </g>
          <g id="Grupo_1178679" data-name="Grupo 1178679" transform="translate(28.822 59.751)">
            <path id="Trazado_998613" data-name="Trazado 998613" d="M242.937,453.334h16.351v6.556H242.937Z" transform="translate(-242.937 -453.334)" fill="#80b4ff"/>
          </g>
          <g id="Grupo_1178680" data-name="Grupo 1178680" transform="translate(29.934)">
            <path id="Trazado_998614" data-name="Trazado 998614" d="M251.25,24.215a15.6,15.6,0,0,0,5.85,13.616l-.007,6.615,6-3.68A15.615,15.615,0,1,0,251.25,24.215Z" transform="translate(-251.187 -9.982)" fill="#fff"/>
          </g>
          <g id="Grupo_1178681" data-name="Grupo 1178681" transform="translate(37.361 12.116)">
            <path id="Trazado_998615" data-name="Trazado 998615" d="M306.29,99.882h16.6v7.489h-16.6Z" transform="translate(-306.29 -99.882)" fill="#ced3dd"/>
          </g>
        </g>
        <path id="Trazado_998616" data-name="Trazado 998616" d="M26.443,246.947,25.148,261.6H20.423a1.348,1.348,0,0,0-1.348,1.348v17.28a1.348,1.348,0,0,0,1.348,1.348L73.5,281.6a1.361,1.361,0,0,0,1.349-1.348V252.91a1.361,1.361,0,0,0-1.976-1.193l-8.749,4.607V252.91a1.361,1.361,0,0,0-1.973-1.194l-8.807,4.613V252.91a1.361,1.361,0,0,0-1.978-1.191l-10.672,5.647a1.348,1.348,0,0,0-.717,1.191V261.6H36.6L35.3,246.947a1.348,1.348,0,0,0-1.342-1.229H27.786A1.348,1.348,0,0,0,26.443,246.947ZM28.7,278.879v-3.833h4.423v3.833Zm35.552.02-13.656-.012v-3.841H64.249Zm7.9.007-5.207,0v-5.2a1.348,1.348,0,0,0-1.348-1.348H49.245A1.348,1.348,0,0,0,47.9,273.7v5.186H42.67V264.294H72.151ZM42.67,259.368l7.976-4.22v3.409a1.348,1.348,0,0,0,1.973,1.194l8.807-4.613v3.419a1.348,1.348,0,0,0,1.976,1.193l8.749-4.606V261.6H42.67Zm-2.7,19.511h-4.16V273.7a1.348,1.348,0,0,0-1.348-1.348H27.349A1.348,1.348,0,0,0,26,273.7v5.18H21.77V264.294h18.2ZM29.02,248.414h3.706L33.891,261.6H27.854Z" transform="translate(0 -212.602)"/>
        <path id="Trazado_998617" data-name="Trazado 998617" d="M234.285,405.8H238.1a1.348,1.348,0,0,0,0-2.7h-3.819a1.348,1.348,0,0,0,0,2.7Z" transform="translate(-185.04 -348.775)"/>
        <path id="Trazado_998618" data-name="Trazado 998618" d="M323.061,405.8h3.819a1.348,1.348,0,1,0,0-2.7h-3.819a1.348,1.348,0,1,0,0,2.7Z" transform="translate(-261.851 -348.775)"/>
        <path id="Trazado_998619" data-name="Trazado 998619" d="M273.919,23.218a1.348,1.348,0,0,0-2.506-.993,14.379,14.379,0,0,1-5.7,6.832,14.134,14.134,0,0,1-8.826,2.114,14.437,14.437,0,0,1-2.126-.351,1.346,1.346,0,0,0-1.023.161l-3.947,2.42,0-4.2a1.348,1.348,0,0,0-.509-1.056A14.241,14.241,0,0,1,243.942,15.7,14.4,14.4,0,0,1,259.414,2.75a14.22,14.22,0,0,1,11.964,8.856,1.348,1.348,0,1,0,2.5-1.014A16.905,16.905,0,0,0,259.652.065a17.119,17.119,0,0,0-18.4,15.394A16.925,16.925,0,0,0,247.1,29.828l-.006,5.98a1.361,1.361,0,0,0,2.052,1.15l5.535-3.394a17.168,17.168,0,0,0,1.968.291,16.811,16.811,0,0,0,10.5-2.515,17.094,17.094,0,0,0,6.773-8.123Z" transform="translate(-192.18 0)"/>
        <path id="Trazado_998620" data-name="Trazado 998620" d="M314.237,89.81a1.348,1.348,0,0,0,1.348-1.348V77.189a1.348,1.348,0,1,0-2.7,0v.545h-13.9v-.545a1.348,1.348,0,1,0-2.7,0V88.462a1.348,1.348,0,1,0,2.7,0v-.545h13.9v.545A1.348,1.348,0,0,0,314.237,89.81Zm-6.872-9.381v4.793H304.5V80.429Zm-8.38,0h2.823v4.793h-2.823Zm11.075,4.793V80.429h2.829v4.793Z" transform="translate(-239.854 -65.62)"/>
        <path id="Trazado_998621" data-name="Trazado 998621" d="M474.8,117.588a1.347,1.347,0,1,0-1.671-.552A1.36,1.36,0,0,0,474.8,117.588Z" transform="translate(-392.7 -99.497)"/>
      </g>
    </g>
  </g>
</svg>
